<?xml version="1.0" encoding="utf-8"?>
<!-- Generator: Adobe Illustrator 25.4.0, SVG Export Plug-In . SVG Version: 6.00 Build 0)  -->
<svg version="1.1" id="레이어_1" xmlns="http://www.w3.org/2000/svg" xmlns:xlink="http://www.w3.org/1999/xlink" x="0px"
	 y="0px" viewBox="0 0 119.1 34" style="enable-background:new 0 0 119.1 34;" xml:space="preserve">
<style type="text/css">
	.st0{fill:#FF3478;}
</style>
<g>
	<path class="st0" d="M59.7,15.1v10h-4.5v-9.6c0-2-1.3-3.5-3.6-3.5c-2.1,0-3.6,1.5-3.6,3.5l0,9.6h-4.5v-17h4.3v2
		c1.1-1.7,3.3-2.2,4.9-2.2C57.8,7.9,59.7,11.3,59.7,15.1z M17.1,8.1l-4.4,10.7L8.1,8.1H2.8l7.4,15.9L6,33.5h5.1L22.4,8.1H17.1z
		 M80.1,16.7c0,4.9-3.9,8.8-8.8,8.8c-4.9,0-8.8-3.9-8.8-8.8s3.9-8.8,8.8-8.8C76.1,7.9,80.1,11.9,80.1,16.7z M75.7,16.7
		c0-2.4-2-4.4-4.4-4.4c-2.4,0-4.4,2-4.4,4.4c0,2.4,2,4.4,4.4,4.4C73.7,21.1,75.7,19.1,75.7,16.7z M39.9,17.2L39.9,17.2l0,7.9h-4.1
		v-1.8c-1.3,1.3-3,2.1-4.9,2.1v0c-4.9,0-8.8-3.9-8.8-8.8c0-4.9,3.9-8.8,8.8-8.8C35.8,7.9,39.9,11.8,39.9,17.2z M35.4,16.7
		c0-2.4-2-4.4-4.4-4.4c-2.4,0-4.4,2-4.4,4.4c0,2.4,2,4.4,4.4,4.4C33.4,21.1,35.4,19.1,35.4,16.7z M116.2,17.2v7.9h-4.1v-1.8
		c-1.3,1.3-3,2.1-4.9,2.1v0c-4.9,0-8.8-3.9-8.8-8.8c0-4.9,3.9-8.8,8.8-8.8C112.1,7.9,116.2,11.8,116.2,17.2L116.2,17.2z M111.7,16.7
		c0-2.4-2-4.4-4.4-4.4c-2.4,0-4.4,2-4.4,4.4c0,2.4,2,4.4,4.4,4.4C109.7,21.1,111.7,19.1,111.7,16.7z M83,25.1h4.6V0.4H83V25.1z
		 M91.2,24.9c0,3.1-1.9,4.2-3.6,4.2c0,0,0,4.5,0,4.5c2.6,0,8.1-0.7,8.2-8.6l0,0V8.1h-4.5V24.9z"/>
</g>
</svg>
